<svg width="168" height="50" viewBox="0 0 168 50" fill="none" xmlns="http://www.w3.org/2000/svg">
<g id="budget logo 1" clip-path="url(#clip0_3_845)">
<g id="Layer_x0020_1">
<g id="_2397732352656">
<g id="Group">
<path id="Vector" d="M54.5143 0V14.3642C56.5653 12.7195 59.1689 11.7352 62.0027 11.7352C68.6191 11.7352 73.9834 17.0987 73.9834 23.7159C73.9834 30.3323 68.6191 35.6966 62.0027 35.6966C59.1689 35.6966 56.5661 34.7122 54.5143 33.0676V35.6989H49.5717V0L54.5143 0ZM62.0119 16.0966C57.8044 16.0966 54.3927 19.5084 54.3927 23.7159C54.3927 27.9234 57.8044 31.3351 62.0119 31.3351C66.2194 31.3351 69.6312 27.9234 69.6312 23.7159C69.6312 19.5084 66.2194 16.0966 62.0119 16.0966Z" fill="#122940"/>
<path id="Vector_2" d="M77.4451 11.7375V25.8554C77.4451 31.2913 81.852 35.6981 87.2878 35.6981C92.7237 35.6981 97.1305 31.2913 97.1305 25.8554V11.7375H92.188V25.8554C92.188 28.5614 89.9938 30.7556 87.2878 30.7556C84.5818 30.7556 82.3876 28.5614 82.3876 25.8554V11.7375H77.4451Z" fill="#122940"/>
<path id="Vector_3" fill-rule="evenodd" clip-rule="evenodd" d="M140.79 35.6989C134.173 35.6989 128.81 30.3346 128.81 23.7182C128.81 17.101 134.173 11.7375 140.79 11.7375C147.407 11.7375 152.771 17.101 152.771 23.7182C152.771 24.1199 152.751 24.5178 152.713 24.9096H150.718H148.327H133.254C133.827 28.5576 136.982 31.3474 140.791 31.3474C143.486 31.3474 145.854 29.9498 147.212 27.8403H152.044C150.364 32.4265 145.959 35.6989 140.792 35.6989H140.79ZM147.905 21.0237C147.804 20.7544 147.688 20.4927 147.559 20.2395H147.582C146.43 17.9945 144.197 16.3952 141.57 16.1289L141.559 16.1274C141.502 16.122 141.446 16.1166 141.389 16.112L141.367 16.1105C141.307 16.1059 141.247 16.102 141.187 16.0989L141.163 16.0974C141.113 16.0951 141.062 16.0928 141.011 16.092L140.965 16.0905C140.907 16.0889 140.848 16.0882 140.79 16.0882C140.731 16.0882 140.673 16.0889 140.614 16.0905L140.568 16.092C140.517 16.0935 140.467 16.0951 140.416 16.0974L140.392 16.0989C140.332 16.102 140.272 16.1059 140.212 16.1105L140.19 16.112C140.133 16.1166 140.076 16.1213 140.02 16.1274L140.009 16.1289C137.382 16.3952 135.149 17.9945 133.997 20.2395H134.02C133.891 20.4935 133.775 20.7551 133.674 21.0237H147.904H147.905Z" fill="#122940"/>
<path id="Vector_4" d="M157.624 0V35.6989H162.567V0H157.624Z" fill="#122940"/>
<path id="Vector_5" d="M167.858 6.90118H152.333V11.8437H167.858V6.90118Z" fill="#122940"/>
<path id="Vector_6" d="M120.518 36.0763V33.0722C118.467 34.7168 115.863 35.7012 113.029 35.7012C106.413 35.7012 101.049 30.3377 101.049 23.7205C101.049 17.1041 106.413 11.7398 113.029 11.7398C115.863 11.7398 118.466 12.7241 120.518 14.3688V11.7375H125.46V36.0763H120.518ZM113.02 31.3397C117.228 31.3397 120.639 27.928 120.639 23.7205C120.639 19.513 117.228 16.1012 113.02 16.1012C108.813 16.1012 105.401 19.513 105.401 23.7205C105.401 27.928 108.813 31.3397 113.02 31.3397Z" fill="#122940"/>
<path id="Vector_7" fill-rule="evenodd" clip-rule="evenodd" d="M125.46 36.0763C125.46 42.6635 120.12 48.0039 113.533 48.0039C106.946 48.0039 101.605 42.6635 101.605 36.0763H106.548C106.548 39.9344 109.675 43.0614 113.533 43.0614C117.391 43.0614 120.518 39.9344 120.518 36.0763H125.46Z" fill="#122940"/>
</g>
<path id="Vector_8" fill-rule="evenodd" clip-rule="evenodd" d="M0.142034 17.8406V17.8491C0.142034 17.9999 0.143573 18.15 0.147421 18.2993V18.3208C0.151269 18.4563 0.155887 18.5917 0.162813 18.7272L0.167431 18.8157C0.173588 18.9258 0.180515 19.035 0.188211 19.1443C0.192829 19.2028 0.196677 19.2613 0.202064 19.3206C0.208221 19.3991 0.215148 19.4776 0.222844 19.5561C0.674612 24.3216 3.00118 28.5406 6.45601 31.4698H6.45447L6.52066 31.5252L6.58069 31.576C6.66612 31.6468 6.75154 31.7169 6.83851 31.7861L6.88546 31.8238C6.97627 31.8962 7.06863 31.9678 7.16098 32.0386L7.19792 32.0671C7.29643 32.1417 7.39495 32.2156 7.495 32.2879L7.53117 32.3141C7.62968 32.3857 7.72896 32.4565 7.82901 32.5257L7.86519 32.5504C7.96216 32.6173 8.0599 32.6835 8.15841 32.7482L8.20536 32.7789C8.30079 32.8413 8.39699 32.9036 8.4932 32.9644L8.54553 32.9967C8.64173 33.0568 8.73948 33.1168 8.83645 33.1745L8.88955 33.2061C8.98806 33.2646 9.08734 33.3223 9.1874 33.3793L9.23588 33.407C9.33593 33.4639 9.43752 33.5193 9.53911 33.574L9.59068 33.6017C9.69458 33.6571 9.80001 33.7125 9.90545 33.7664L9.94316 33.7856C10.054 33.8418 10.1656 33.8964 10.2779 33.9503L10.3033 33.9626C10.4203 34.0188 10.5389 34.0735 10.6574 34.1273L10.6774 34.1366C10.7944 34.1897 10.9121 34.2405 11.0306 34.2905L11.0599 34.3028C11.1738 34.3513 11.2885 34.3982 11.4039 34.4436L11.4439 34.459C11.5555 34.5029 11.6679 34.546 11.781 34.5883L11.831 34.6068C11.9426 34.6476 12.0542 34.6876 12.1666 34.7269L12.2135 34.743C12.3267 34.7815 12.4398 34.8192 12.5545 34.8554L12.6045 34.8716C12.72 34.9077 12.8354 34.9431 12.9516 34.977L12.9955 34.9901C13.114 35.0247 13.2333 35.0578 13.3534 35.0901L13.3903 35.1001C13.5157 35.1332 13.6412 35.1655 13.7682 35.1963L13.7851 35.201C13.9175 35.2333 14.0514 35.2633 14.1845 35.2925L14.1907 35.2941C14.3231 35.3225 14.4562 35.3495 14.5894 35.3757L14.6117 35.3803C14.7402 35.4049 14.8687 35.428 14.998 35.4503L15.0319 35.4557C15.1573 35.4765 15.2828 35.4965 15.409 35.5142L15.4529 35.5203C15.5776 35.538 15.703 35.5542 15.8285 35.5696L15.8692 35.5742C15.9947 35.5888 16.1209 35.6027 16.2471 35.615L16.2933 35.6196C16.4188 35.6312 16.5442 35.6419 16.6712 35.6512L16.7166 35.6543C16.8444 35.6635 16.9721 35.6712 17.1006 35.6773L17.1399 35.6797C17.2723 35.6858 17.4062 35.6904 17.5393 35.6943L17.5655 35.695C17.7071 35.6981 17.8487 35.6997 17.9911 35.6997C18.1319 35.6997 18.2728 35.6981 18.4128 35.695L18.4406 35.6943C18.5729 35.6912 18.7053 35.6866 18.8384 35.6804L18.87 35.6789C19.0001 35.6727 19.1294 35.665 19.2579 35.6558L19.2987 35.6527C19.4249 35.6435 19.5511 35.6327 19.6773 35.6212L19.7204 35.6173C19.8443 35.605 19.9683 35.5919 20.0922 35.5773L20.1414 35.5711C20.2653 35.5565 20.3892 35.5404 20.5116 35.5227L20.5509 35.5173C20.6748 35.4996 20.7979 35.4803 20.9203 35.4603L20.9641 35.4534C21.0865 35.4326 21.2081 35.4111 21.3289 35.388L21.372 35.3795C21.4944 35.3556 21.6168 35.331 21.7384 35.3056L21.7738 35.2979C21.9015 35.2702 22.0285 35.241 22.1555 35.211L22.1701 35.2079C22.301 35.1763 22.4318 35.144 22.5611 35.1094L22.5734 35.1063C22.7012 35.0724 22.8282 35.0378 22.9544 35.0008L22.9782 34.9939C23.0998 34.9585 23.2207 34.9223 23.3415 34.8839L23.3792 34.8723C23.4954 34.8354 23.6109 34.7977 23.7263 34.7584L23.7702 34.743C23.8833 34.7045 23.9957 34.6645 24.1073 34.6245L24.1558 34.6068C24.2666 34.566 24.3766 34.5245 24.4859 34.4814L24.5352 34.4621C24.6429 34.419 24.7499 34.3759 24.8569 34.3313L24.9123 34.3082C25.0177 34.2635 25.1232 34.2181 25.2286 34.1712L25.281 34.1481C25.3879 34.0996 25.4949 34.0511 25.6011 34.0003L25.6419 33.9811C25.752 33.9288 25.8612 33.8757 25.9705 33.821L25.999 33.8064C26.1083 33.751 26.2168 33.6956 26.3253 33.6378L26.3577 33.6209C26.4685 33.5617 26.5793 33.5016 26.6894 33.4401L26.7178 33.4239C26.8263 33.3631 26.9341 33.3015 27.0411 33.2384L27.0703 33.2207C27.1742 33.1591 27.2773 33.0968 27.3797 33.0329L27.4205 33.0075C27.519 32.946 27.6168 32.8836 27.7137 32.8205L27.7591 32.7905C27.8538 32.7289 27.9469 32.6658 28.04 32.6027L28.0955 32.5642C28.1863 32.5019 28.2755 32.4388 28.3648 32.3749L28.4218 32.3341C28.5103 32.2702 28.5988 32.2056 28.6858 32.1402L28.7412 32.0986C28.8289 32.0324 28.9159 31.9655 29.0021 31.8977L29.0552 31.8562C29.1406 31.7884 29.226 31.7199 29.3099 31.6507L29.3661 31.6045C29.42 31.5599 29.4731 31.5152 29.527 31.4698H29.5254C32.9225 28.5899 35.2283 24.4617 35.7339 19.7939L35.7347 19.7908C35.7424 19.7154 35.7501 19.64 35.7578 19.5645C35.7655 19.4807 35.7732 19.3968 35.7801 19.3121C35.7847 19.2582 35.7886 19.2044 35.7932 19.1505C35.8009 19.0397 35.8086 18.9281 35.8148 18.8165L35.8194 18.7287C35.8263 18.5933 35.8309 18.4578 35.8348 18.3208V18.2993C35.8386 18.15 35.8402 17.9999 35.8402 17.8491V17.8406C35.8402 17.1849 35.8048 16.5384 35.7347 15.9011H33.7122H31.4756H4.50425H2.26773H0.245163C0.175897 16.5384 0.140494 17.1856 0.139725 17.8406H0.142034ZM17.9919 0C13.5958 0 9.57144 1.59004 6.46063 4.22522H17.9919H29.5231C26.4123 1.59004 22.3887 0 17.9919 0ZM18.3143 31.4698H18.3059H18.2943C18.195 31.4721 18.0965 31.4729 17.9965 31.4729H17.9919H17.9872C17.888 31.4729 17.7887 31.4714 17.6894 31.4698H17.6779H17.6694C10.9506 31.3136 5.43549 26.2933 4.50656 19.7939H31.4772C30.5482 26.2933 25.0331 31.3144 18.3143 31.4698ZM3.02734 8.1172C2.24233 9.32166 1.59893 10.6269 1.12022 12.0092H5.68023H30.3035H34.8635C34.3848 10.6269 33.7414 9.32166 32.9564 8.1172H27.5252H8.45933H3.02811H3.02734Z" fill="#0068F0"/>
</g>
</g>
</g>
<defs>
<clipPath id="clip0_3_845">
<rect width="167.717" height="50" fill="white" transform="translate(0.141388)"/>
</clipPath>
</defs>
</svg>
